<?xml version="1.0" standalone="no"?>
<!DOCTYPE svg PUBLIC "-//W3C//DTD SVG 20010904//EN"
 "http://www.w3.org/TR/2001/REC-SVG-20010904/DTD/svg10.dtd">
<svg version="1.0" xmlns="http://www.w3.org/2000/svg"
 width="1696.000000pt" height="1696.000000pt" viewBox="0 0 1696.000000 1696.000000"
 preserveAspectRatio="xMidYMid meet">

<g transform="translate(0.000000,1696.000000) scale(0.100000,-0.100000)"
fill="#000000" stroke="none">
<path d="M8010 16949 c-1755 -102 -3409 -727 -4770 -1802 -712 -563 -1351
-1254 -1834 -1986 -1180 -1787 -1640 -3934 -1296 -6046 287 -1763 1109 -3363
2380 -4635 934 -933 2035 -1618 3275 -2036 2403 -811 5053 -501 7209 843 1012
631 1933 1530 2590 2528 1081 1640 1549 3565 1350 5545 -111 1111 -462 2227
-1012 3225 -543 985 -1316 1887 -2222 2594 -1368 1067 -3013 1678 -4762 1771
-221 11 -704 11 -908 -1z m831 -459 c1381 -69 2660 -460 3818 -1167 545 -333
1006 -698 1482 -1173 409 -407 716 -779 1018 -1233 1081 -1622 1528 -3571
1266 -5523 -188 -1394 -757 -2741 -1628 -3849 -221 -281 -383 -462 -656 -735
-657 -656 -1321 -1131 -2141 -1534 -1425 -699 -3006 -954 -4600 -741 -1007
134 -2010 475 -2895 983 -650 373 -1156 762 -1695 1301 -403 404 -710 776
-1007 1221 -1085 1626 -1530 3569 -1268 5526 173 1281 668 2525 1428 3584 250
349 514 658 847 991 369 370 706 655 1110 935 1431 997 3184 1500 4921 1414z"/>
<path d="M7927 13729 c-956 -40 -1893 -352 -2697 -897 -164 -111 -324 -232
-455 -345 -44 -38 -86 -72 -94 -75 -8 -3 -188 170 -472 454 l-459 459 2 -1445
3 -1445 1445 -3 1445 -2 -400 400 -400 401 35 29 c509 432 1131 703 1830 797
170 23 702 26 845 5 324 -48 519 -93 754 -174 836 -288 1536 -875 1972 -1654
235 -420 377 -874 431 -1374 16 -148 16 -553 0 -695 -95 -848 -448 -1590
-1038 -2179 -600 -601 -1371 -961 -2214 -1036 -241 -21 -581 -10 -830 26 -701
102 -1370 422 -1905 912 l-100 92 -582 -583 c-321 -320 -583 -585 -583 -588 0
-8 243 -230 345 -314 765 -635 1718 -1048 2695 -1169 417 -52 889 -52 1305 0
1755 217 3293 1322 4059 2916 968 2013 549 4424 -1041 5989 -1044 1028 -2426
1560 -3896 1498z"/>
</g>
</svg>
