<?xml version="1.0" standalone="no"?>
<!DOCTYPE svg PUBLIC "-//W3C//DTD SVG 20010904//EN"
 "http://www.w3.org/TR/2001/REC-SVG-20010904/DTD/svg10.dtd">
<svg version="1.0" xmlns="http://www.w3.org/2000/svg"
 width="1696.000000pt" height="1696.000000pt" viewBox="0 0 1696.000000 1696.000000"
 preserveAspectRatio="xMidYMid meet">

<g transform="translate(0.000000,1696.000000) scale(0.100000,-0.100000)"
fill="#000000" stroke="none">
<path d="M8130 16954 c-516 -29 -894 -74 -1320 -160 -903 -181 -1755 -502
-2555 -962 -355 -204 -646 -400 -980 -661 -2289 -1787 -3498 -4573 -3239
-7466 124 -1385 606 -2753 1377 -3910 511 -765 1134 -1437 1862 -2006 1246
-975 2752 -1581 4335 -1743 405 -42 1056 -54 1425 -28 1031 75 1987 311 2895
715 1449 644 2723 1721 3608 3049 1187 1782 1652 3931 1312 6058 -225 1401
-815 2749 -1694 3865 -961 1221 -2206 2142 -3641 2694 -773 296 -1604 480
-2450 541 -151 11 -813 21 -935 14z m935 -473 c1421 -115 2709 -557 3860
-1324 699 -467 1350 -1071 1876 -1742 771 -984 1297 -2128 1543 -3355 300
-1502 164 -3078 -389 -4490 -216 -553 -483 -1064 -807 -1549 -650 -969 -1558
-1833 -2552 -2425 -1899 -1133 -4174 -1434 -6298 -835 -1821 513 -3419 1674
-4484 3259 -879 1307 -1354 2863 -1354 4440 0 1817 591 3542 1699 4955 642
819 1455 1523 2346 2032 1077 616 2235 959 3515 1043 169 11 871 5 1045 -9z"/>
<path d="M5040 11915 l-1105 -1105 1163 -1163 c639 -639 1162 -1167 1162
-1172 0 -5 -523 -533 -1162 -1172 l-1163 -1163 1108 -1107 1107 -1108 1163
1163 c639 639 1167 1162 1172 1162 5 0 533 -523 1172 -1162 l1163 -1163 1107
1108 1108 1107 -1163 1163 c-639 639 -1162 1167 -1162 1172 0 5 523 533 1162
1172 l1163 1163 -1108 1107 -1107 1108 -1163 -1163 c-639 -639 -1167 -1162
-1172 -1162 -6 0 -532 522 -1170 1160 -638 638 -1162 1160 -1165 1160 -3 0
-502 -497 -1110 -1105z"/>
</g>
</svg>
